<?xml version="1.0" encoding="UTF-8"?>
<svg width="1200pt" height="1200pt" version="1.1" viewBox="0 0 1200 1200" xmlns="http://www.w3.org/2000/svg">
 <g>
  <path d="m300 712.5h112.5v-37.5h-93.75v-318.75c0-155.33 125.92-281.25 281.25-281.25s281.25 125.92 281.25 281.25v318.75h-93.75v37.5h112.5c10.355 0 18.75-8.3945 18.75-18.75v-337.5c0-176.04-142.71-318.75-318.75-318.75s-318.75 142.71-318.75 318.75v337.5c0 10.355 8.3945 18.75 18.75 18.75z"/>
  <path d="m225 1162.5h750c10.355 0 18.75-8.3945 18.75-18.75v-206.25c-0.082031-72.453-58.797-131.17-131.25-131.25h-150v-105.45c69.52-40.137 112.39-114.27 112.5-194.55v-243.75h-37.5v75h-112.5v-93.75h-37.5v93.75h-75v-75h-37.5v75h-37.5v-56.25h-37.5v56.25h-37.5v-93.75h-37.5v262.5c0.10938 80.277 42.98 154.41 112.5 194.55v105.45h-150c-72.453 0.082031-131.17 58.797-131.25 131.25v206.25c0 10.355 8.3945 18.75 18.75 18.75zm187.5-656.25v-131.25h375v131.25c0 103.55-83.945 187.5-187.5 187.5s-187.5-83.945-187.5-187.5zm93.75 337.5c10.355 0 18.75-8.3945 18.75-18.75v-106.88c48.469 17.5 101.53 17.5 150 0v106.88c0 10.355 8.3945 18.75 18.75 18.75h34.051c-7.918 22.395-29.047 37.402-52.801 37.5h-150c-23.754-0.097656-44.883-15.105-52.801-37.5zm-262.5 93.75c0.0625-51.75 42-93.688 93.75-93.75h95.625c8.9648 43.625 47.34 74.949 91.875 75h150c44.535-0.050781 82.91-31.375 91.875-75h95.625c51.75 0.0625 93.688 42 93.75 93.75v187.5h-712.5z"/>
  <path d="m506.25 454.69c-18.121 0-32.812 14.691-32.812 32.812s14.691 32.812 32.812 32.812 32.812-14.691 32.812-32.812c-0.019531-18.113-14.699-32.793-32.812-32.812zm-4.6875 32.812c0-2.5898 2.0977-4.6875 4.6875-4.6875s4.6875 2.0977 4.6875 4.6875c0 5.1562-9.375 5.1562-9.375 0z"/>
  <path d="m693.75 520.31c18.121 0 32.812-14.691 32.812-32.812s-14.691-32.812-32.812-32.812-32.812 14.691-32.812 32.812c0.019531 18.113 14.699 32.793 32.812 32.812zm0-37.5c2.5898 0 4.6875 2.0977 4.6875 4.6875 0 5.1562-9.375 5.1562-9.375 0 0-2.5898 2.0977-4.6875 4.6875-4.6875z"/>
  <path d="m670.31 581.25h-28.125c0 23.301-18.887 42.188-42.188 42.188s-42.188-18.887-42.188-42.188h-28.125c0 38.832 31.48 70.312 70.312 70.312s70.312-31.48 70.312-70.312z"/>
 </g>
</svg>
