<?xml version="1.0" encoding="UTF-8"?>
<svg width="1200pt" height="1200pt" version="1.1" viewBox="0 0 1200 1200" xmlns="http://www.w3.org/2000/svg">
 <path d="m414.91 589.76c-24.145 0-42.359-11.703-42.359-27.211 0-15.508 18.211-27.203 42.359-27.203s42.359 11.695 42.359 27.203c-0.003906 15.508-18.215 27.211-42.359 27.211zm327.82-27.211c0 15.512 18.211 27.211 42.363 27.211 24.141 0 42.352-11.703 42.352-27.211 0-15.512-18.211-27.207-42.352-27.207-24.152 0-42.363 11.695-42.363 27.207zm228.36 475.5c0.11719 5.8594-2.0859 11.379-6.1758 15.551-4.0898 4.1719-9.5742 6.4688-15.422 6.4688h-81.805c-58 67.555-143.92 110.47-239.73 110.47h-55.934c-95.809 0-181.73-42.918-239.73-110.47h-81.809c-5.8555 0-11.332-2.2969-15.426-6.4805-4.0898-4.1719-6.2812-9.6914-6.1641-15.539l2.0977-106.98c0.99219-50.484 9.9492-97.934 25.031-139.84l0.003906-108.85c0-33.082 26.918-60 60-60h18.23c-11.629-20.812-21.156-43.07-28.184-66.5-3.0039 0.44922-6.0039 0.92188-9.1289 0.92188-34.168 0-61.957-27.797-61.957-61.961 0-32.75 25.617-59.367 57.824-61.539 10.266-141.42 106.86-257.74 234.29-290.43 8.6914-9.0898 18.852-17.031 28.492-24.457 26.879-20.711 41.719-33.484 34.152-55.113-3.7383-10.68-7.0742-22.695 0.71484-30.043 4.2344-4.0039 10.328-4.918 16.312-2.4258 10.574 4.3945 31.324 28.477 50.07 56.324 1.7188 1.8867 4.4219 5.3984 6.8359 10.484 10.883 17.207 20.391 34.969 26.027 50.051 119.04 38.238 207.65 150.48 217.46 285.61 32.203 2.1719 57.824 28.789 57.824 61.539 0 34.168-27.797 61.961-61.957 61.961-3.125 0-6.125-0.47266-9.1289-0.92188-7.0273 23.43-16.555 45.688-28.184 66.5h18.234c33.082 0 60 26.918 60 60v108.85c15.082 41.906 24.039 89.352 25.031 139.84zm-71.141-505.55c1.0391 0.085937 2.0312 0.3125 3.0898 0.3125 20.93 0 37.957-17.027 37.957-37.961 0-19.18-14.348-34.914-32.844-37.441 0 0.28906 0.019531 0.57031 0.019531 0.85938 0 25.543-2.9023 50.371-8.2227 74.23zm-599.91 0c-5.3203-23.859-8.2227-48.688-8.2227-74.23 0-0.28906 0.019532-0.57031 0.019532-0.85938-18.496 2.5234-32.844 18.262-32.844 37.441 0 20.934 17.027 37.961 37.957 37.961 1.0547 0 2.0508-0.22656 3.0898-0.3125zm331.85-347.78c-15.41 14.52-23.234 29.41-23.238 44.258-0.003906 14.715 7.6523 26.293 12.004 31.707 10.656-2.2422 19.879-7.1133 27.391-14.82 15.512-15.926 23.93-43.297 23.09-75.094-0.17188-6.5625-3.457-15.996-8.5742-26.711-5.8242 13.258-16.016 26.852-30.672 40.66zm-34.559-20.859c-56.578 26.316-37.312 83.668-35.809 87.875 9.0508 4.8086 19.652 7.957 31.164 9.4297-4.3594-8.6016-8.0391-19.465-8.0352-32.203 0.011719-21.715 10.363-42.48 30.785-61.715 24.012-22.617 28.969-39.027 28.902-48.816 0-0.19531-0.0625-0.32422-0.066406-0.51172-6.6094 19.008-22.312 34.484-46.941 45.941zm-64.148 57.461c1.0156-28.109 13.605-60.426 54.023-79.223 19.285-8.9727 31.078-20.301 35.047-33.684 5.1992-17.52-4.5156-33.777-4.6172-33.941-0.17578-0.28125-0.1875-0.60547-0.33594-0.89844-0.50781-0.63672-1.0352-1.3242-1.5312-1.9375 1.6289 29.473-23.215 48.613-45.52 65.805-19.117 14.73-37.184 28.645-40.312 47.43-2.2422 13.41-1.0625 25.719 3.2461 36.449zm-25.656 521.15c-1.9531-3.1094-3.75-6.3242-5.4062-9.6367-31.137-13.5-53.367-47.855-53.367-88.125 0-52.008 37.008-94.32 82.5-94.32 13.234 0 26.379 3.6641 38.012 10.586 18.953 11.285 42.504 11.285 61.457 0 11.633-6.9258 24.773-10.586 38.004-10.586 45.496 0 82.508 42.309 82.508 94.32 0 40.273-22.23 74.629-53.371 88.129-1.6523 3.3086-3.4531 6.5234-5.4023 9.6328 111.42-40.688 191.71-152.68 191.71-284.21 0-130.51-79.035-241.8-189.11-283.27-0.011718 36.199-10.688 67.961-29.828 87.613-15.016 15.418-35.133 23.566-58.168 23.566-34.441 0-64.746-12.453-83.141-34.168-16.137-19.043-22.246-43.629-17.672-71.086 0.41016-2.457 1.1367-4.75 1.8242-7.0625-111.71 40.516-192.27 152.66-192.27 284.41 0.003906 131.53 80.293 243.52 191.72 284.21zm-17.574-61.102v-32.742c0-11.754 9.9141-21.316 22.102-21.316h22.117c8.7578-21.895 33.551-37.895 63.047-38.852-13.09-0.46094-26.098-4.0273-37.773-10.977-8.7891-5.2383-18.273-7.8906-28.191-7.8906-34.902 0-63.305 33.699-63.305 75.121 0 23.883 9.4766 45.152 24.168 58.922-1.4023-7.2031-2.1641-14.645-2.1641-22.266zm73.59 49.977c9.9688 8.582 22.656 13.926 36.449 13.926 13.898 0 26.48-5.375 36.395-13.953-1.9023-0.92969-3.8281-1.793-5.6641-2.8867-18.961-11.273-42.512-11.273-61.457 0-1.8516 1.1016-3.7969 1.9766-5.7227 2.9141zm33.625-30.395c-19.453-0.64453-36.828-7.8242-48.934-18.938h-5.2383l0.10547 9.5391c0.69531 8.8828 3.5898 17.109 7.8203 24.461 2.8984-1.1367 5.7539-2.4336 8.5273-4.082 11.66-6.9414 24.648-10.512 37.719-10.98zm43.379 10.98c2.75 1.6367 5.582 2.9258 8.457 4.0586 5.0234-8.8008 8.1016-18.934 8.1016-29.875v-4.1016h-5.3477c-12.105 11.117-29.484 18.297-48.938 18.938 13.07 0.46875 26.059 4.0391 37.727 10.98zm9.4922-67.219c0-20.496-22.453-37.172-50.047-37.172-27.59 0-50.039 16.676-50.039 37.172 0 20.484 22.449 37.16 50.039 37.16 27.594 0 50.047-16.676 50.047-37.16zm-140.89 36.656c0 51.797 40.754 93.938 90.844 93.938s90.844-42.141 90.844-93.938l0.007812-32.742c0-1.0078-1.1953-2.1211-2.9062-2.1211h-18.816c-0.22266 5.6914-1.4648 11.164-3.6211 16.312h1.2031c5.3008 0 9.5977 4.3008 9.5977 9.5977v13.699c0 43.207-34.23 78.352-76.305 78.352-39.52 0-72.93-31.652-76.059-72.07l-0.23828-19.875c-0.027344-2.5664 0.96484-5.0273 2.7695-6.8555 1.8047-1.8281 4.2617-2.8477 6.8281-2.8477h1.2031c-2.1523-5.1484-3.3984-10.621-3.6211-16.312h-18.816c-1.7109 0-2.9062 1.1133-2.9062 2.1211zm200.89-32.742-0.007813 32.742c0 7.625-0.76172 15.066-2.1641 22.27 14.695-13.77 24.172-35.043 24.172-58.926 0-41.426-28.398-75.121-63.309-75.121-9.9141 0-19.395 2.6523-28.184 7.8906-11.676 6.9492-24.688 10.52-37.777 10.977 29.496 0.95703 54.293 16.957 63.051 38.852h22.117c12.188 0 22.102 9.5625 22.102 21.316zm209.92 33.762c0-19.852-16.148-36-36-36h-33.047c-11.832 17.461-25.246 33.637-40.047 48.293-41.602 41.199-94.008 70.383-152.24 82.25-16.996 11.062-37.07 17.566-58.637 17.566s-41.637-6.5039-58.637-17.566c-58.23-11.867-110.63-41.051-152.24-82.25-14.801-14.66-28.219-30.836-40.047-48.293h-33.043c-19.852 0-36 16.148-36 36v172.15c0 161.02 130.98 292.01 292 292.01h55.934c161.01 0 292-130.99 292-292.01zm-40.418 0.29297c-6.6328 0-12 5.3672-12 12v124.02c0 147.53-120.02 267.54-267.55 267.54s-267.55-120.01-267.55-267.54v-124.02c0-6.6328-5.3711-12-12-12-6.6289 0-12 5.3672-12 12v124.02c0 160.76 130.79 291.54 291.55 291.54 160.76 0 291.55-130.78 291.55-291.54v-124.02c0-6.6328-5.3672-12-12-12zm-425.31-195.24c17.441 0 31.582-14.141 31.582-31.582s-14.141-31.582-31.582-31.582-31.582 14.141-31.582 31.582 14.141 31.582 31.582 31.582zm291.53 0c17.441 0 31.582-14.141 31.582-31.582s-14.141-31.582-31.582-31.582c-17.441 0-31.582 14.141-31.582 31.582s14.137 31.582 31.582 31.582z"/>
</svg>
