<?xml version="1.0" encoding="UTF-8"?>
<svg width="1200pt" height="1200pt" version="1.1" viewBox="0 0 1200 1200" xmlns="http://www.w3.org/2000/svg">
 <g>
  <path d="m266.34 484.75c14.223-5.1406 28.492-5.2344 42.805-5.1758 1.0195 0.003907 2.6289-1.6836 2.9883-2.8789 5.4844-18.305 15.883-33 31.852-43.574 11.566-7.6602 24.27-12.191 38.223-12.699 6.8711-0.25 13.758-0.19922 20.637-0.19922 85.504-0.015625 171.01-0.03125 256.52 0.042969 2.9727 0.003906 4.6055-1.2109 6.0625-3.5547 11.039-17.742 22.121-35.457 33.281-53.121 1.4844-2.3477 3.2031-4.6758 5.2617-6.5156 7.7969-6.9766 18.961-5.1602 24.309 4.457 6.7383 12.113 12.785 24.609 19.102 36.957 3.0625 5.9883 6.1797 11.957 9.0391 18.047 1.3242 2.8203 3.1445 3.7695 6.2227 3.7422 15.582-0.13672 31.18 0.33594 46.75-0.14453 40.773-1.2539 68.953 23.98 78.254 56.43 0.72656 2.5391 2.082 3.082 4.5664 3.0664 13.762-0.078125 27.523 0.035156 41.371 5.0508-0.085938-1.7422 0.054687-3.0703-0.23828-4.293-8.5977-35.812-21.547-69.93-41.16-101.19-22.836-36.398-49.945-69.105-85.172-94.418-2.3906-1.7188-4.6836-3.582-6.9336-5.4844-7.6953-6.4922-9.0898-16.215-3.4375-23.582 5.8672-7.6445 15.625-8.8906 23.891-2.8789 20.504 14.914 39.23 31.844 56.188 50.656 45.785 50.793 76.047 109.59 90.117 176.57 1.9844 9.4531 3.0117 19.105 4.793 28.609 0.65625 3.5039 1.6602 7.1641 3.4414 10.199 16.059 27.379 16.395 54.887 1.6953 82.93-1.8359 3.5039-2.3906 8.0352-2.3984 12.094-0.10156 43.938 0.34375 87.875 0.015625 131.81-0.42969 57.777-25.168 103.51-71.027 137.82-16.262 12.168-35.012 20.012-54.711 25.199-3.4453 0.90625-4.2773 2.0898-3.668 5.7305 2.6992 16.074 3.8086 32.27 3.5 48.613-0.36719 19.645-0.046875 39.305-0.058594 58.957-0.007812 14.152-6.7578 20.879-20.91 20.879-151.5 0.003906-302.99 0.003906-454.48-0.007813-1.8203 0-3.6719 0.054687-5.4609-0.22266-10.246-1.5938-15.727-7.8398-15.809-18.973-0.19922-26.949-0.40234-53.906 0.050781-80.848 0.16797-9.8984 2.0391-19.789 3.4141-29.641 0.39062-2.7969-0.45703-3.582-2.9922-4.2656-54.648-14.691-92.348-48.777-114.52-100.47-9.1641-21.363-12.344-43.812-12.207-66.938 0.25391-42.953 0.29687-85.906 0.16797-128.86-0.011718-4.0039-1.168-8.3555-2.9805-11.949-13.348-26.477-13.961-52.879 0.86328-78.773 4.5039-7.8633 5.1406-16.156 6.4844-24.512 10.91-67.906 38.348-128.36 82.363-181.14 42.961-51.512 95.988-89.039 158.93-112.47 31.199-11.613 63.441-18.43 96.504-21.855 35.223-3.6523 70.051-1.0742 104.62 6.0039 9.5547 1.957 15.602 10.453 13.918 18.902-1.8711 9.3828-9.832 15.031-19.637 13.336-23.84-4.1289-47.805-6.5234-72.02-6.1172-71.363 1.1914-136.37 22.059-194.25 63.871-40.922 29.562-74.195 66.238-98.73 110.57-16.051 29.004-27.703 59.676-35.055 91.988-0.26172 1.1719-0.19922 2.418-0.33203 4.2109zm446.19-81.25c-8.0156 12.867-15.852 24.496-22.672 36.691-5.6016 10.02-13.266 13.836-24.68 13.723-48.012-0.47266-96.031-0.33984-144.05-0.37891-43.945-0.035156-87.891 0.10938-131.84-0.058594-31.117-0.11719-46.797 21.98-46.512 43.953 0.37891 29.336-0.011719 58.68 0.30469 88.012 0.36328 34.059 9.5508 65.832 25.902 95.613 20.234 36.852 49.539 64.988 84.746 87.191 35.727 22.531 74.875 34.949 116.95 39.035 48.004 4.6602 94.398-1.0859 138.84-19.977 39.496-16.789 73.688-40.949 100.54-74.871 27.766-35.078 44.629-74.668 46.535-119.49 1.4023-32.93 0.62109-65.961 0.35938-98.945-0.10938-13.789-6.6211-24.699-17.93-32.625-8.3789-5.875-17.988-7.7383-27.938-7.793-19.516-0.10938-39.035-0.15234-58.543 0.26953-10.02 0.21875-16.961-3.4453-21.109-12.668-2.8711-6.3867-6.1523-12.59-9.2969-18.852-3.0039-5.9805-6.0742-11.93-9.5938-18.832zm-294.36 381.98c-0.45703-0.82422-0.57812-1.2734-0.87109-1.5352-0.9375-0.83984-1.918-1.6367-2.9141-2.4023-44.129-33.824-76.297-76.289-93.637-129.48-2.7266-8.3633-2.7734-8.4414-11.59-8.168-16.66 0.51953-33.129-0.019531-48.48-7.707-0.42969-0.21484-1.0664-0.027343-1.7656-0.027343-0.11719 1.0664-0.31641 2.0234-0.31641 2.9805 0.035156 36.617-0.65234 73.254 0.31641 109.85 1.3242 50.035 24.699 87.809 67.16 113.88 11.512 7.0664 24.062 11.781 37.773 14.84 11.727-34.578 29.367-65.504 54.324-92.223zm523.25-149.87c-4.2344 1.5234-7.4922 2.7266-10.773 3.8672-14.504 5.043-29.543 4.6914-44.559 4.2188-3.207-0.10156-4.5039 0.85547-5.5898 3.9922-4.1211 11.895-7.9414 23.988-13.258 35.359-12.824 27.422-30.082 51.902-52.105 72.777-10.551 10-21.719 19.348-32.91 29.262 0.57812 0.78516 1.3789 2.082 2.3789 3.1992 22.305 25.02 38.906 53.398 49.965 85.008 1.2344 3.5273 2.7773 4.3477 6.4023 3.3438 14.863-4.1055 28.871-10.078 41.434-19.016 36.871-26.23 57.379-61.859 58.676-107.23 1.0273-35.895 0.29297-71.844 0.34375-107.77 0-2.0742-0.003907-4.1523-0.003907-7.0117zm-231.85 279.6h-219.02v93.773h219.02v-93.773zm-0.10938-92.188c-73.102 25.609-145.92 26.121-218.95-0.21094-0.15234 1.7617-0.33203 2.8398-0.32422 3.918 0.082031 16.422 0.35547 32.844 0.17578 49.258-0.046874 4.2031 1.2461 5.0742 5.1758 5.0703 68.504-0.097656 137.01-0.050781 205.52-0.039062h8.4062c0.003906-19.438 0.003906-38.316 0.003906-57.996zm103.53 101.78c-0.085938-1.2969-0.078125-2.1289-0.20312-2.9453-3.1211-20.184-9.1953-39.414-17.691-58.016-9.8906-21.652-22.945-41.035-39.297-58.254-0.91797-0.96875-2.1641-2.1328-3.3516-2.2422-3.5938-0.33984-9.3867 5.5273-9.3867 9.1719 0.007813 35.477 0.027344 70.953 0.039063 106.43v5.8516c23.527 0.003906 46.477 0.003906 69.891 0.003906zm-356.12-0.082031c0.078125-0.92969 0.19141-1.6016 0.1875-2.2734-0.03125-35.895-0.21484-71.793 0.042969-107.69 0.039062-5.3945-1.793-8.043-6.4102-10.148-2.9844-1.3594-4.6133-1.0547-6.7539 1.3125-11.605 12.832-21.551 26.801-30.383 41.691-11.406 19.242-19.215 39.777-23.938 61.551-1.1055 5.0898-1.7227 10.289-2.582 15.555h69.836zm433.14-314.55c6.1016 0 12.531 0.27344 18.93-0.050781 20.141-1.0195 37.957-15.371 43.258-34.82 8.8906-32.594-15.352-69.461-62.191-61.496 0.003906 31.75 0.003906 63.648 0.003906 96.367zm-579.25-0.375c-0.32031-12.121-0.76562-23.879-0.91016-35.637-0.23047-18.934-0.34766-37.871-0.28516-56.805 0.011718-3.5039-1.2969-4.3789-4.4219-4.2461-3.3594 0.14453-6.7344-0.085937-10.098-0.050781-20.297 0.20703-35.285 9.293-44.066 27.551-8.7227 18.148-6.0898 35.398 5.9648 51.305 13.816 18.227 33.145 19.98 53.816 17.883zm74.18 349.07v49.988h71.773v-49.988h-71.773zm430.2 50.102v-50.289h-3.7109c-21.316 0-42.633 0.070313-63.945-0.070313-3.3945-0.023437-4.6445 0.77734-4.5742 4.3945 0.23438 12.473 0.13281 24.953 0.16016 37.434 0.003906 2.7617 0 5.5273 0 8.5312h72.07z"/>
  <path d="m727.7 227.36c0.058593-9.0664 8.0703-16.746 17.227-16.516 8.1836 0.20703 15.641 8.1719 15.707 16.773 0.066407 8.7031-8.0234 16.836-16.656 16.742-8.7734-0.089844-16.336-7.9883-16.277-17z"/>
  <path d="m599.91 630.3c-16.961-0.87891-30.555-6.3828-41.41-17.84-4.5391-4.7891-7.0859-10.48-4.8086-17.305 2.1328-6.3945 6.5508-10.332 13.133-11.719 6.0859-1.2812 11.191 0.78906 15 5.457 6.332 7.7617 14.691 8.6094 23.664 7.3711 5.0898-0.70312 8.8477-3.6992 12.18-7.5977 5.8633-6.8633 13.758-8.2305 20.715-4.043 8.5273 5.1328 10.82 15.504 5.125 24.125-7.1211 10.781-17.684 16.578-29.891 19.543-4.8711 1.1953-9.9609 1.4844-13.707 2.0078z"/>
  <path d="m449.27 559.23c0.066406-15.773 13.883-29.297 29.844-29.207 15.352 0.089844 28.926 13.641 28.793 28.746-0.14453 16.59-13.793 30.203-30.012 29.938-15.41-0.25-28.688-13.926-28.625-29.477z"/>
  <path d="m750.79 558.71c0.023437 16.426-13.395 30.086-29.461 29.984-15.879-0.10156-29.211-13.824-29.094-29.941 0.11328-15.41 14.023-28.758 29.906-28.691 14.844 0.058594 28.625 13.844 28.648 28.648z"/>
 </g>
</svg>
