<?xml version="1.0" encoding="utf-8"?>
<!-- Generator: Adobe Illustrator 26.0.2, SVG Export Plug-In . SVG Version: 6.00 Build 0)  -->
<svg version="1.1" id="Layer_1" xmlns="http://www.w3.org/2000/svg" xmlns:xlink="http://www.w3.org/1999/xlink" x="0px" y="0px"
	 width="1200px" height="1200px" viewBox="0 0 1200 1200" style="enable-background:new 0 0 1200 1200;" xml:space="preserve">
<g>
	<path d="M596.6019897,47.6093559c-38.0784302,0.9905891-73.7580566,18.802372-97.4329834,48.6319389
		c-23.6812134,29.8359451-32.9204712,68.6241074-25.237793,105.9305954
		c-69.3912354,40.6828918-114.8764343,112.3596649-122.1476135,192.473465l-4.223938,46.7818298
		c-21.1692505,2.6665344-39.934906,14.9398193-50.856842,33.268158
		c-10.9214172,18.335022-12.7778931,40.6766052-5.0464172,60.563446
		c7.7378235,19.8869019,24.2106934,35.0944214,44.6446533,41.2252197
		c0.5482483,62.1759033,29.0703735,120.8015137,77.6464844,159.6184082l28.3782043,22.7593994
		c-36.434082,12.0241699-68.1392517,35.2315674-90.6163025,66.3130493
		c-22.4850159,31.0879517-34.5839844,68.4758301-34.5903625,106.8396606v206.5883789
		c0.0062561,3.6757812,1.4703064,7.2020264,4.0744934,9.7998047c2.604187,2.5980225,6.1367188,4.043457,9.818573,4.0308838
		h537.9783936c7.6193237-0.0249023,13.7871094-6.2113037,13.7871094-13.8309326V932.0142212
		c0-38.3654785-12.1049805-75.7516479-34.5840454-106.8395996c-22.4785767-31.081543-54.1901245-54.2891235-90.6162109-66.3131104
		l28.47229-22.7593384c48.5824585-38.8137207,77.104187-97.4393311,77.6464844-159.6184082
		c20.4403076-6.1305542,36.9141846-21.3383179,44.6447144-41.2252197c7.737854-19.8869019,5.874939-42.2283936-5.0465088-60.5635071
		c-10.9215088-18.3286743-29.6796875-30.6030579-50.8504639-33.2681885l-4.223877-46.7818298
		c-7.2892456-80.125-52.8186035-151.8033295-122.246521-192.4734802
		c7.918335-38.4452667-2.1494751-78.4056702-27.3447266-108.5095596
		C673.4403687,63.558094,635.8850708,46.5994453,596.642395,47.6090164L596.6019897,47.6093559z M596.6019897,63.8200035
		c2.3237305-0.0747643,4.6539917-0.0747643,6.9777222,0c32.296875,1.0092735,62.593689,15.8742638,83.1600342,40.80093
		c20.5599976,24.9268112,29.3878174,57.5044022,24.2282104,89.4025497c-69.8521729-34.708374-151.9276733-34.708374-221.7718811,0
		c-5.1585388-31.9045258,3.6757507-64.4821167,24.2346497-89.4089203
		c20.5663452-24.9331894,50.8743896-39.7913666,83.1775513-40.7945595H596.6019897z M595.6051636,184.366333
		c58.8936157-1.1650391,116.0359497,20.030426,159.9214478,59.3226013
		c43.885437,39.2873535,71.2541504,93.743927,76.5875244,152.4078064l1.2397461,13.5442505l0.0062256-0.0062256
		c-31.8917236,0.0311279-63.12323-9.0834961-89.9942627-26.2601624
		c-26.8710938-17.1771545-48.2524414-41.6924744-61.6224976-70.6496277
		c-2.7661743-5.9560242-8.3483887-10.1177979-14.8401489-11.0771484c-6.4979858-0.9594116-13.0396118,1.4204712-17.413269,6.3235168
		c-34.277771,38.502655-78.8984375,66.3449707-128.5527344,80.2127075
		c-49.6542664,13.8682251-102.2479553,13.1766357-151.5162354-1.9873962
		c7.4013062-55.1056519,34.2713928-105.7503662,75.7581177-142.7633972
		c41.493103-37.0193939,94.8540039-57.9716949,150.444458-59.0674133L595.6051636,184.366333z M663.9804077,317.7213745
		c1.2833862-0.0498352,2.4733276,0.6728516,3.0091553,1.8378296c14.777832,32.0098267,38.4835815,59.0674133,68.2636719,77.938385
		c29.7801514,18.8709412,64.3752441,28.7450256,99.6259766,28.434021l4.223938,47.0752869l-64.2508545,64.8872681
		c-5.5946045-22.8773804-21.668396-41.7611084-43.3560181-50.9381714
		c-21.6811523-9.1769409-46.4261475-7.5695801-66.7437134,4.3362732
		c-20.315918,11.9056396-33.8104248,32.7083435-36.4021606,56.1088562h-56.2524414
		c-2.5482178-23.4371948-16.0367432-44.2906494-36.3782959-56.2269592
		c-20.335022-11.9368896-45.1183167-13.5442505-66.8297729-4.3362427
		c-21.7051086,9.2017822-37.7801514,28.1357727-43.3368225,51.0562439l-64.201416-64.8872681l6.4107361-70.27005h-0.0062256
		c51.9285889,15.3447571,107.1523132,15.6000977,159.2164307,0.7351685
		c52.0657959-14.8650513,98.8285522-44.239563,134.8255005-84.6927795c0.5669556-0.6417236,1.3768921-1.0279846,2.2302856-1.0653687
		L663.9804077,317.7213745z M346.2428589,458.2104187h0.2492065h-0.242981l-8.9216003,97.7375183
		c-0.0124817,1.1338501-0.0124817,2.2677612,0,3.3953857c-14.2669678-5.6132202-25.3941345-17.1452637-30.5090027-31.5983276
		c-5.1086426-14.4538574-3.7006836-30.4212036,3.8627319-43.7547302
		c7.563324-13.3386536,20.5344238-22.7466125,35.5680237-25.7800903L346.2428589,458.2104187z M853.8701172,458.2104187h0.2492065
		c15.0270386,3.0340271,28.0050049,12.4415894,35.5681152,25.7800598
		c7.5633545,13.332428,8.9713135,29.2999878,3.8565063,43.7546997
		c-5.1087036,14.4538574-16.236145,25.9858398-30.5026245,31.5983887c0.0062256-1.1276855,0.0062256-2.2616577,0-3.3954468
		l-8.9215698-97.7375488h-0.2492065L853.8701172,458.2104187z M359.3689575,494.2696533l64.1519775,64.7373657h0.0062256
		c1.1089478,25.2697144,14.9584961,48.2523804,36.7817383,61.0419312
		c21.8247375,12.7841797,48.6382751,13.6376953,71.2285156,2.2553711
		c22.590332-11.3823853,37.866333-33.4436035,40.5712891-58.5873413h56.2012939
		c2.710144,25.1453247,17.9857788,47.2061157,40.5760498,58.5873413
		c22.5838623,11.3824463,49.4054565,10.5289917,71.2285156-2.2553711
		c21.8247681-12.7903442,35.6668701-35.7738037,36.7817993-61.0419312l64.1520386-64.7373657l5.7379761,63.1854858h0.0062256
		c5.7940063,63.6464233-20.7529297,125.9547119-70.6687622,165.8704224l-87.2398682,69.7836304h0.0062866
		c-25.1565552,20.1165161-56.4071655,31.0751953-88.616333,31.0751953s-63.4597778-10.9587402-88.616272-31.0751953
		l-87.3084717-69.7836304h-0.0062256c-49.9285583-39.9046631-76.4933777-102.2112427-70.7118225-165.8704224
		L359.3689575,494.2696533z M702.3538818,495.7337341c15.7310181-0.0124512,30.7961426,6.3423462,41.7674561,17.6126404
		c10.9711914,11.2702637,16.9139404,26.5025635,16.4785156,42.2283325
		c0.5419922,15.7746582-5.34552,31.100708-16.3158569,42.4516602
		c-10.9650269,11.3574829-26.0799561,17.7688599-41.866333,17.7688599c-15.7869873,0-30.8949585-6.4106445-41.866333-17.7688599
		c-10.9712524-11.3512573-16.8582153-26.6779785-16.3110962-42.4516602
		c-0.4361572-15.7061768,5.4887085-30.9140625,16.4291382-42.1836548
		c10.9463501-11.2702942,25.9794922-17.6317139,41.6861572-17.6556702L702.3538818,495.7337341z M496.2758179,497.3721619v0.0062256
		c15.7310181-0.4610291,30.9762573,5.4638062,42.2650146,16.42276
		c11.2890015,10.9587402,17.6619873,26.0224609,17.668396,41.7611084c0,20.8087769-11.1019287,40.0353394-29.119812,50.4389648
		c-18.0240784,10.4041748-40.2219543,10.4041748-58.2460327,0c-18.0176697-10.4041748-29.1198425-29.630188-29.1198425-50.4389648
		c0.0062256-15.1516113,5.912323-29.6987305,16.472229-40.5649414
		c10.5600281-10.8652954,24.9396057-17.1819458,40.0784607-17.618927L496.2758179,497.3721619z M458.1096802,771.265686
		l38.2155762,30.4771118v0.0062256c-16.3047791,35.4180298-13.4508057,76.7119141,7.5820312,109.5509644
		c21.0336304,32.8328247,57.3481445,52.7006226,96.342041,52.7006226c38.9938354,0,75.3035889-19.8677368,96.3355713-52.7005005
		c21.0336304-32.8391724,23.8916626-74.1312866,7.5820312-109.5510254l38.140625-30.4771118
		c35.6174316,9.2142334,67.1663208,30.003418,89.6881104,59.0929565
		c22.5216064,29.0943604,34.7449951,64.8425903,34.7449951,101.6387329v204.0684814H333.7065125V932.0036621
		c-0.0062256-36.788147,12.2172852-72.536377,34.7323303-101.6323853
		c22.5153198-29.0878906,54.0593872-49.8775635,89.6704712-59.0993042L458.1096802,771.265686z M509.6203918,811.9788208v0.0062256
		c26.5647888,18.5472412,58.1822205,28.4962158,90.5796814,28.4962158c32.3973999,0,64.0148315-9.9494629,90.5795288-28.4962158
		c12.5661621,30.2665405,9.1831665,64.8123169-9.008606,92.0692749
		c-18.1915283,27.257019-48.8010254,43.6239014-81.5715942,43.6239014s-63.378418-16.3670044-81.5715942-43.6239014
		c-18.197876-27.257019-21.5743103-61.8027344-9.008667-92.0692749L509.6203918,811.9788208z"/>
	<path d="M660.0952759,695.4449463c3.1273804-3.1773682,3.1273804-8.2798462,0-11.4509277
		c-3.133667-3.1773682-8.2301025-3.2584839-11.4509888-0.1806641
		c-12.9896851,12.8027344-30.4961548,19.9857788-48.7387695,19.9857788c-18.2362671,0-35.7418823-7.1833496-48.7324219-19.9857788
		c-3.2271118-3.0776978-8.3235474-2.9967041-11.4509277,0.1806641c-3.1274414,3.1710815-3.133667,8.2735596-0.0062256,11.4509277
		c16.0432129,15.8121338,37.6605225,24.6780396,60.1885986,24.6780396s44.1470337-8.8654175,60.1885986-24.6780396H660.0952759z"/>
</g>
</svg>
